<svg width="40" height="40" viewBox="0 0 40 40" fill="none" xmlns="http://www.w3.org/2000/svg">
<g filter="url(#filter0_d_276_299)">
<rect x="2" y="2" width="32" height="32" rx="16" fill="#1E342C"/>
<path d="M18 21.3333C19.3807 21.3333 20.5 20.2141 20.5 18.8333C20.5 17.4526 19.3807 16.3333 18 16.3333C16.6192 16.3333 15.5 17.4526 15.5 18.8333C15.5 20.2141 16.6192 21.3333 18 21.3333Z" stroke="#FFF3E3" stroke-width="2" stroke-linecap="round" stroke-linejoin="round"/>
<path d="M10.5 22V15.6667C10.5 14.7332 10.5 14.2665 10.6817 13.91C10.8414 13.5964 11.0964 13.3414 11.41 13.1817C11.7665 13 12.2332 13 13.1667 13H14.0455C14.148 13 14.1992 13 14.2465 12.9946C14.493 12.9663 14.7142 12.8297 14.8497 12.6217C14.8757 12.5819 14.8986 12.5361 14.9444 12.4444C15.0361 12.2612 15.0819 12.1695 15.1339 12.0898C15.4049 11.674 15.8472 11.4006 16.3404 11.3442C16.4349 11.3333 16.5373 11.3333 16.7422 11.3333H19.2577C19.4627 11.3333 19.5651 11.3333 19.6596 11.3442C20.1527 11.4006 20.5951 11.674 20.8662 12.0898C20.9181 12.1695 20.9639 12.2612 21.0556 12.4444C21.1013 12.5361 21.1242 12.5819 21.1502 12.6217C21.2858 12.8297 21.5069 12.9663 21.7535 12.9946C21.8008 13 21.852 13 21.9545 13H22.8333C23.7667 13 24.2335 13 24.59 13.1817C24.9036 13.3414 25.1586 13.5964 25.3183 13.91C25.5 14.2665 25.5 14.7332 25.5 15.6667V22C25.5 22.9334 25.5 23.4002 25.3183 23.7567C25.1586 24.0702 24.9036 24.3252 24.59 24.485C24.2335 24.6667 23.7667 24.6667 22.8333 24.6667H13.1667C12.2332 24.6667 11.7665 24.6667 11.41 24.485C11.0964 24.3252 10.8414 24.0702 10.6817 23.7567C10.5 23.4002 10.5 22.9334 10.5 22Z" stroke="#FFF3E3" stroke-width="2" stroke-linecap="round" stroke-linejoin="round"/>
</g>
<defs>
<filter id="filter0_d_276_299" x="0" y="0" width="40" height="40" filterUnits="userSpaceOnUse" color-interpolation-filters="sRGB">
<feFlood flood-opacity="0" result="BackgroundImageFix"/>
<feColorMatrix in="SourceAlpha" type="matrix" values="0 0 0 0 0 0 0 0 0 0 0 0 0 0 0 0 0 0 127 0" result="hardAlpha"/>
<feOffset dx="2" dy="2"/>
<feGaussianBlur stdDeviation="2"/>
<feComposite in2="hardAlpha" operator="out"/>
<feColorMatrix type="matrix" values="0 0 0 0 0 0 0 0 0 0 0 0 0 0 0 0 0 0 0.25 0"/>
<feBlend mode="normal" in2="BackgroundImageFix" result="effect1_dropShadow_276_299"/>
<feBlend mode="normal" in="SourceGraphic" in2="effect1_dropShadow_276_299" result="shape"/>
</filter>
</defs>
</svg>
