<svg width="53" height="53" viewBox="0 0 53 53" fill="none" xmlns="http://www.w3.org/2000/svg">
<path d="M35 10.5L42.5 3M42.5 3L50 10.5M42.5 3V18M26.25 5.5H14.5C10.2996 5.5 8.1994 5.5 6.59508 6.31745C5.18385 7.0365 4.0365 8.18385 3.31745 9.59508C2.5 11.1994 2.5 13.2996 2.5 17.5V38.5C2.5 42.7005 2.5 44.8005 3.31745 46.405C4.0365 47.8162 5.18385 48.9635 6.59508 49.6825C8.1994 50.5 10.2996 50.5 14.5 50.5H37.5C39.825 50.5 40.9875 50.5 41.9413 50.2445C44.5293 49.551 46.551 47.5293 47.2445 44.9413C47.5 43.9875 47.5 42.825 47.5 40.5M21.25 19.25C21.25 22.0114 19.0114 24.25 16.25 24.25C13.4886 24.25 11.25 22.0114 11.25 19.25C11.25 16.4886 13.4886 14.25 16.25 14.25C19.0114 14.25 21.25 16.4886 21.25 19.25ZM32.475 27.7953L11.3279 47.02C10.1384 48.1015 9.54368 48.642 9.49108 49.1105C9.44548 49.5165 9.60113 49.919 9.90798 50.1887C10.262 50.5 11.0657 50.5 12.6732 50.5H36.14C39.7377 50.5 41.5367 50.5 42.9497 49.8955C44.7235 49.1367 46.1367 47.7235 46.8955 45.9497C47.5 44.5367 47.5 42.7377 47.5 39.14C47.5 37.9292 47.5 37.324 47.3677 36.7605C47.2012 36.052 46.8825 35.3885 46.4332 34.816C46.0757 34.3605 45.603 33.9822 44.6578 33.2262L37.6645 27.6318C36.7185 26.8748 36.2455 26.4963 35.7245 26.3628C35.2653 26.245 34.7823 26.2603 34.3313 26.4068C33.8198 26.5728 33.3715 26.9803 32.475 27.7953Z" stroke="#0E2920" stroke-opacity="0.6" stroke-width="5" stroke-linecap="round" stroke-linejoin="round"/>
</svg>
