<svg width="32" height="32" viewBox="0 0 32 32" fill="none" xmlns="http://www.w3.org/2000/svg">
<path fill-rule="evenodd" clip-rule="evenodd" d="M15.9998 1.66667C8.08376 1.66667 1.6665 8.08392 1.6665 16C1.6665 23.9161 8.08376 30.3333 15.9998 30.3333C23.9159 30.3333 30.3332 23.9161 30.3332 16C30.3332 8.08392 23.9159 1.66667 15.9998 1.66667ZM3.6665 16C3.6665 12.9542 4.77056 10.1663 6.60029 8.01466L10.8702 12.2846C10.113 13.3283 9.6665 14.612 9.6665 16C9.6665 17.388 10.113 18.6717 10.8702 19.7154L6.60028 23.9853C4.77055 21.8337 3.6665 19.0458 3.6665 16ZM12.2845 10.8704L8.0145 6.60045C10.1662 4.77072 12.9541 3.66667 15.9998 3.66667C19.0456 3.66667 21.8335 4.77072 23.9852 6.60045L19.7152 10.8704C18.6716 10.1132 17.3879 9.66667 15.9998 9.66667C14.6118 9.66667 13.3281 10.1132 12.2845 10.8704ZM8.01449 25.3996C10.1662 27.2293 12.9541 28.3333 15.9998 28.3333C19.0456 28.3333 21.8335 27.2293 23.9852 25.3995L19.7152 21.1296C18.6716 21.8868 17.3879 22.3333 15.9998 22.3333C14.6118 22.3333 13.3281 21.8868 12.2844 21.1296L8.01449 25.3996ZM21.1294 19.7154L25.3994 23.9853C27.2291 21.8337 28.3332 19.0458 28.3332 16C28.3332 12.9542 27.2291 10.1663 25.3994 8.01466L21.1294 12.2846C21.8867 13.3283 22.3332 14.612 22.3332 16C22.3332 17.388 21.8867 18.6717 21.1294 19.7154ZM11.6665 16C11.6665 13.6068 13.6066 11.6667 15.9998 11.6667C18.3931 11.6667 20.3332 13.6068 20.3332 16C20.3332 18.3932 18.3931 20.3333 15.9998 20.3333C13.6066 20.3333 11.6665 18.3932 11.6665 16Z" fill="#0E2920"/>
</svg>
