<svg width="32" height="32" viewBox="0 0 32 32" fill="none" xmlns="http://www.w3.org/2000/svg">
<path fill-rule="evenodd" clip-rule="evenodd" d="M15.9998 1.33606C15.2988 1.33606 14.6101 1.52031 14.0027 1.87031L9.74161 4.30521C9.46142 4.36064 9.20006 4.50537 9.00328 4.72712L4.67165 7.20233L4.6665 7.20529C4.17317 7.49012 3.7477 7.87624 3.41722 8.33655C3.33678 8.41702 3.2654 8.50919 3.20572 8.61236C3.15432 8.70121 3.11432 8.79353 3.08526 8.88761C2.81096 9.43894 2.66714 10.0473 2.6665 10.6653V21.3347C2.66722 22.0361 2.85239 22.7251 3.20343 23.3324C3.55446 23.9397 4.05903 24.444 4.6665 24.7947L4.67165 24.7976L13.9998 30.128L14.0023 30.1294C14.4252 30.3732 14.8876 30.5366 15.3662 30.6134C15.5546 30.7154 15.7705 30.7733 15.9998 30.7733C16.2292 30.7733 16.445 30.7154 16.6335 30.6134C17.1121 30.5366 17.5745 30.3732 17.9974 30.1294L17.9998 30.128L27.328 24.7976L27.3332 24.7947C27.9406 24.444 28.4452 23.9397 28.7962 23.3324C29.1473 22.7251 29.3325 22.0361 29.3332 21.3347V10.6653C29.3325 10.0474 29.1888 9.43913 28.9145 8.88788C28.8855 8.7937 28.8455 8.70129 28.794 8.61236C28.7343 8.50912 28.6628 8.41688 28.5823 8.33637C28.2519 7.87613 27.8264 7.49008 27.3332 7.20528L17.9998 1.87196L17.9971 1.87035C17.3897 1.52032 16.7009 1.33606 15.9998 1.33606ZM17.3332 27.4377L25.9998 22.4853L26.002 22.4841C26.2035 22.3672 26.3709 22.1996 26.4875 21.9978C26.6045 21.7954 26.6663 21.5658 26.6665 21.332V11.3834L17.3332 16.7824V27.4377ZM14.6665 16.7824L5.33317 11.3834V21.3325C5.33351 21.5662 5.39523 21.7956 5.51214 21.9978C5.62875 22.1996 5.79618 22.3672 5.99774 22.4841L5.99984 22.4853L14.6665 27.4377V16.7824ZM16.6717 4.18432L25.2812 9.10405L22.0068 10.9982L12.7477 5.65878L15.328 4.18432L15.3332 4.18136C15.5359 4.06433 15.7658 4.00273 15.9998 4.00273C16.2339 4.00273 16.4638 4.06433 16.6665 4.18136L16.6717 4.18432ZM15.9999 14.473L19.3419 12.5397L10.0665 7.1909L6.7185 9.10403L15.9999 14.473Z" fill="currentColor"/>
</svg>
