<svg width="60" height="60" viewBox="0 0 60 60" fill="none" xmlns="http://www.w3.org/2000/svg">
<g clip-path="url(#clip0_193_78)">
<path d="M30.0006 0C13.4322 0 0 9.95805 0 15.6673C0 21.3737 13.4322 60 30.0006 60C46.5677 60 60.0001 21.3737 60.0001 15.6673C60 9.95805 46.5677 0 30.0006 0ZM44.361 36.7067C44.361 37.3664 43.8258 37.9018 43.166 37.9018C42.5053 37.9018 41.97 37.3665 41.97 36.7067C41.97 34.2127 41.2015 31.8943 39.8917 29.975C39.3978 32.0462 38.6772 34.3961 37.69 36.549C39.5614 38.4791 40.7192 41.1053 40.7192 43.9992C40.7192 44.6592 40.1839 45.1951 39.524 45.1951C38.8643 45.1951 38.328 44.6591 38.328 43.9992C38.328 42.0348 37.641 40.2289 36.4968 38.8027C34.8805 41.4447 32.7481 43.3826 29.9994 43.3826C27.2507 43.3826 25.1166 41.4447 23.5 38.8027C22.3578 40.2289 21.6708 42.0347 21.6708 43.9992C21.6708 44.6592 21.1345 45.1951 20.4749 45.1951C19.815 45.1951 19.2797 44.6591 19.2797 43.9992C19.2797 41.1053 20.4376 38.48 22.3089 36.549C21.3217 34.3971 20.6011 32.0463 20.1073 29.976C18.7975 31.8943 18.0289 34.2128 18.0289 36.7067C18.0289 37.3664 17.4937 37.9018 16.833 37.9018C16.1732 37.9018 15.6379 37.3665 15.6379 36.7067C15.6379 32.9334 17.1123 29.5054 19.5003 26.94C19.4465 26.5949 19.4003 26.2773 19.3649 25.9871C17.0573 23.4383 15.6379 20.0709 15.6379 16.3692C15.6379 15.7094 16.1732 15.1742 16.833 15.1742C17.4937 15.1742 18.0289 15.7094 18.0289 16.3692C18.0289 18.6064 18.6563 20.6954 19.7289 22.4875C20.4277 20.8515 21.9522 19.1063 24.5715 18.0593C24.548 17.8556 24.5097 17.6545 24.5097 17.4437C24.5097 16.6086 24.7097 15.8251 25.0432 15.1164C23.9724 13.9303 23.3138 12.3647 23.3138 10.6453C23.3138 9.98565 23.848 9.4495 24.5097 9.4495C25.1694 9.4495 25.7039 9.98577 25.7039 10.6453C25.7039 11.602 26.03 12.4794 26.5616 13.193C27.5055 12.4293 28.6907 11.9519 29.9996 11.9519C31.3083 11.9519 32.4935 12.4293 33.4374 13.193C33.9689 12.4794 34.2951 11.602 34.2951 10.6453C34.2951 9.98565 34.8295 9.4495 35.4893 9.4495C36.151 9.4495 36.6852 9.98577 36.6852 10.6453C36.6852 12.3648 36.0265 13.9303 34.9561 15.1164C35.2893 15.8251 35.4893 16.6085 35.4893 17.4437C35.4893 17.6545 35.451 17.8554 35.4275 18.0593C38.0459 19.1062 39.5714 20.8514 40.2692 22.4883C41.3418 20.6953 41.9702 18.6063 41.9702 16.3691C41.9702 15.7093 42.5054 15.174 43.1661 15.174C43.8259 15.174 44.3612 15.7093 44.3612 16.3691C44.3612 20.0709 42.9417 23.4392 40.633 25.987C40.5977 26.2771 40.5525 26.5948 40.4977 26.9388C42.8858 29.5054 44.361 32.9334 44.361 36.7067Z" fill="black"/>
</g>
<defs>
<clipPath id="clip0_193_78">
<rect width="60" height="60" fill="white"/>
</clipPath>
</defs>
</svg>
