<svg width="60" height="60" viewBox="0 0 60 60" fill="none" xmlns="http://www.w3.org/2000/svg">
<g clip-path="url(#clip0_187_165)">
<path d="M55.3161 55.3222L54.0382 51.5651C51.6387 44.4978 45.141 39.6814 37.7382 39.3654C37.0866 39.8716 36.3998 40.3066 35.6879 40.6869C34.6266 43.4737 31.0608 44.2286 28.9716 42.0944C26.5 41.8761 24.2372 40.8997 22.2611 39.3655C14.8583 39.6805 8.36231 44.4969 5.96108 51.5652L4.68535 55.3222C4.31655 56.4028 4.49417 57.5938 5.15942 58.5214C5.82253 59.4499 6.89552 60 8.03672 60H51.9629C53.1039 60 54.177 59.45 54.8403 58.5214C55.5053 57.5938 55.6827 56.4028 55.3161 55.3222Z" fill="black"/>
<path d="M34.8901 36.5057C39.1876 33.4851 42.1934 26.8145 42.1934 20.3655C42.1934 2.03755 17.8076 2.05702 17.8076 20.3655C17.8076 28.2034 22.2455 36.3565 28.0509 37.8956C28.6106 36.3096 30.1087 35.1626 31.884 35.1626C33.0778 35.1625 34.1429 35.6862 34.8901 36.5057Z" fill="black"/>
<path d="M12.4571 28.0171C13.0616 30.392 16.3566 29.7385 16.3566 27.5392C16.3566 18.7239 16.7779 17.9007 15.5978 16.9439C18.2993 0.296581 41.5714 0.421441 44.4039 16.9458C43.2255 17.9056 43.6471 18.7249 43.6471 27.5392C43.6471 28.2287 44.0176 28.8072 44.5501 29.1661C44.5501 36.0239 41.7684 35.6229 33.4036 37.84C32.1104 36.4364 29.8007 37.3502 29.8007 39.2435C29.8007 41.6146 33.1989 42.1694 33.8582 39.7859C40.6115 37.9951 46.5475 37.4304 46.5475 30.6809V29.2958C47.0488 29.0362 47.4038 28.5761 47.5462 28.0171C54.0558 27.8845 54.0578 18.1289 47.5462 17.9963C47.4116 17.4637 47.0801 17.0287 46.6138 16.7634C46.7816 14.7659 46.3701 12.1402 45.2249 9.60531C37.2604 -6.82936 13.7366 -0.398944 13.3681 15.5286C13.3174 16.068 13.3583 16.4504 13.3895 16.7634C12.9232 17.0287 12.5917 17.4637 12.4571 17.9963C9.72998 18.0489 7.53149 20.2679 7.53149 23.0068C7.53149 25.7455 9.72998 27.9644 12.4571 28.0171Z" fill="black"/>
</g>
<defs>
<clipPath id="clip0_187_165">
<rect width="60" height="60" fill="white"/>
</clipPath>
</defs>
</svg>
