<svg width="60" height="46" viewBox="0 0 60 46" fill="none" xmlns="http://www.w3.org/2000/svg">
<path d="M58.4573 25.6901L53.7372 23.7331L52.4735 15.136C52.2931 13.9089 51.2403 12.9995 50 12.9995H43.12C43.6618 11.0259 44.1041 8.98628 44.457 6.94795C44.6231 5.98902 44.7575 5.09747 44.8629 4.29474C44.9272 3.80631 44.9679 3.45077 44.9881 3.24991C45.1355 1.77806 43.9798 0.500732 42.5006 0.500732H8.2536C7.01753 0.500732 5.96707 1.404 5.78192 2.62613L4.96748 7.99969H3.31516C1.93447 7.99969 0.81523 9.11893 0.81523 10.4996C0.81523 11.8803 1.93447 12.9995 3.31516 12.9995H4.20964L3.83078 15.4995H2.63196C1.25128 15.4995 0.132037 16.6187 0.132037 17.9994C0.132037 19.3801 1.25128 20.4993 2.63196 20.4993H3.07305L2.37638 25.0959L0.0435613 37.5386C-0.244833 39.0772 0.935346 40.4993 2.50072 40.4993H7.9283C8.95766 43.4123 11.7338 45.4993 15 45.4993C18.2662 45.4993 21.0423 43.4124 22.0717 40.4993H37.9279C38.9572 43.4123 41.7334 45.4993 44.9996 45.4993C48.2658 45.4993 51.0419 43.4124 52.0713 40.4993H57.4999C58.8806 40.4993 59.9999 39.3801 59.9999 37.9994V27.9996C59.9999 26.9886 59.3912 26.0771 58.4573 25.6901ZM18.3943 15.4996H8.88782L9.26668 12.9997H19.0775C20.4582 12.9997 21.5774 11.8804 21.5774 10.4997C21.5774 9.11905 20.4582 7.99981 19.0775 7.99981H10.0245L10.4033 5.50082H39.6306C39.5987 5.69535 39.5653 5.89351 39.5305 6.09495C39.0914 8.63062 38.5049 11.1632 37.7569 13.5068C37.6558 13.8238 37.5524 14.1318 37.4478 14.4343C37.4124 14.5095 37.3791 14.5861 37.351 14.6657C35.9725 18.5612 34.3326 21.1771 32.543 22.3418C32.5413 22.3429 32.5398 22.3439 32.5382 22.345C32.4682 22.3905 32.3979 22.433 32.3275 22.474C32.3144 22.4815 32.3016 22.4893 32.2885 22.4965C32.2256 22.5324 32.1625 22.5661 32.0991 22.5984C32.079 22.6086 32.059 22.6186 32.0389 22.6285C31.9801 22.6573 31.9213 22.6847 31.8622 22.7105C31.8382 22.7209 31.8142 22.731 31.79 22.741C31.7333 22.7645 31.6765 22.787 31.6194 22.8078C31.5938 22.817 31.568 22.8256 31.5423 22.8344C31.4858 22.8536 31.4293 22.8721 31.3726 22.8885C31.3474 22.8958 31.3221 22.902 31.2968 22.9088C31.2388 22.9243 31.1808 22.9393 31.1227 22.9518C31.101 22.9565 31.0793 22.9599 31.0576 22.9641C30.9953 22.9763 30.9331 22.9881 30.8705 22.997C30.859 22.9987 30.8474 22.9995 30.8359 23.001C30.6831 23.0212 30.5297 23.0322 30.3755 23.0322H7.74619L8.12997 20.4997H18.3942C19.7749 20.4997 20.8941 19.3804 20.8941 17.9998C20.8942 16.6188 19.775 15.4996 18.3943 15.4996ZM15 40.4992C13.6199 40.4992 12.503 39.3837 12.5003 38.0042C12.5003 38.0026 12.5005 38.0009 12.5005 37.9993C12.5005 36.6175 13.6186 35.4995 15.0002 35.4994C15.0823 35.4994 15.1632 35.5039 15.2433 35.5117C15.2474 35.512 15.2517 35.5119 15.2558 35.5122C15.2941 35.5161 15.3313 35.524 15.369 35.5295C16.174 35.6488 16.8536 36.1497 17.2166 36.8449C17.3967 37.1903 17.4999 37.5825 17.4999 37.9993C17.5 39.381 16.3817 40.4992 15 40.4992ZM44.9996 40.4992C43.6195 40.4992 42.5026 39.3837 42.4999 38.0042C42.4999 38.0026 42.5001 38.0009 42.5001 37.9993C42.5001 36.6175 43.6182 35.4995 44.9998 35.4994C45.0819 35.4994 45.1628 35.5039 45.2429 35.5117C45.247 35.512 45.2513 35.5119 45.2554 35.5122C45.2937 35.5161 45.3309 35.524 45.3686 35.5295C46.168 35.6479 46.8444 36.1426 47.2091 36.8303C47.3939 37.1792 47.4995 37.5767 47.4995 37.9993C47.4996 39.381 46.3813 40.4992 44.9996 40.4992ZM55 35.4994H52.0733C52.0672 35.4821 52.0603 35.4654 52.0541 35.4481C52.0439 35.42 52.0331 35.3923 52.0225 35.3644C51.9932 35.2862 51.9628 35.2087 51.9309 35.1319C51.9177 35.0999 51.9044 35.068 51.8907 35.0362C51.8571 34.9581 51.8219 34.8807 51.7857 34.8039C51.774 34.779 51.7629 34.7539 51.7509 34.7292C51.7027 34.63 51.6526 34.5317 51.6002 34.435C51.589 34.4142 51.5769 34.3941 51.5655 34.3733C51.5238 34.2978 51.481 34.2231 51.4367 34.1494C51.4166 34.1157 51.3958 34.0826 51.3752 34.0493C51.3371 33.9879 51.2982 33.9272 51.2584 33.8671C51.236 33.8332 51.2137 33.7995 51.1908 33.7659C51.1461 33.7008 51.1002 33.6367 51.0535 33.5731C51.0352 33.5481 51.0177 33.5225 50.999 33.4978C50.9358 33.4137 50.8707 33.3311 50.804 33.2497C50.7795 33.2199 50.7542 33.1909 50.7293 33.1614C50.6839 33.1077 50.6381 33.0544 50.5912 33.002C50.5611 32.9684 50.5306 32.9351 50.4999 32.902C50.4552 32.8538 50.4097 32.8062 50.3637 32.7591C50.3327 32.7274 50.302 32.6957 50.2706 32.6645C50.2141 32.6087 50.1565 32.5541 50.0982 32.5001C50.0683 32.4723 50.0385 32.4444 50.0081 32.4172C49.9399 32.3561 49.8707 32.296 49.8002 32.2373C49.7665 32.2091 49.732 32.1819 49.6978 32.1544C49.6467 32.1133 49.5954 32.0727 49.5432 32.0329C49.5063 32.0048 49.4692 31.9769 49.4317 31.9493C49.378 31.91 49.3236 31.8716 49.2689 31.8337C49.2336 31.8093 49.1988 31.7844 49.1631 31.7605C49.0766 31.7026 48.9891 31.6462 48.9 31.5919C48.8745 31.5763 48.8482 31.5619 48.8224 31.5466C48.7539 31.5059 48.685 31.4659 48.6151 31.4274C48.5773 31.4065 48.539 31.3865 48.5006 31.3662C48.4403 31.3343 48.3795 31.303 48.3182 31.2728C48.2789 31.2534 48.2395 31.2341 48.1999 31.2154C48.1323 31.1834 48.064 31.1528 47.9952 31.1229C47.9626 31.1087 47.9304 31.0939 47.8976 31.08C47.7983 31.0384 47.698 30.9988 47.5965 30.9614C47.5672 30.9507 47.5375 30.9409 47.508 30.9305C47.4318 30.9034 47.3553 30.8773 47.278 30.8527C47.2396 30.8405 47.2008 30.8288 47.1621 30.8172C47.0901 30.7955 47.0176 30.775 46.9446 30.7554C46.9071 30.7454 46.8696 30.7352 46.8319 30.7257C46.7428 30.7033 46.6532 30.6828 46.563 30.6637C46.5423 30.6593 46.5219 30.6542 46.5013 30.65C46.3907 30.6275 46.279 30.6078 46.1666 30.5902C46.1351 30.5853 46.1032 30.5814 46.0716 30.5768C45.9886 30.565 45.9053 30.5542 45.8214 30.5451C45.7827 30.5409 45.744 30.5371 45.705 30.5335C45.6231 30.5259 45.5409 30.5197 45.4583 30.5147C45.4229 30.5126 45.3876 30.51 45.352 30.5084C45.2352 30.503 45.1181 30.4995 45.0001 30.4995H44.9998H44.9996C44.999 30.4995 44.9983 30.4995 44.9977 30.4995C44.8806 30.4995 44.7644 30.503 44.6486 30.5083C44.6116 30.51 44.5748 30.5126 44.538 30.515C44.4572 30.5199 44.3769 30.5259 44.2969 30.5333C44.2564 30.537 44.2158 30.541 44.1755 30.5454C44.0942 30.5543 44.0132 30.5648 43.9327 30.5763C43.8989 30.5811 43.8648 30.5853 43.831 30.5906C43.7198 30.6079 43.6093 30.6275 43.4997 30.6497C43.4756 30.6547 43.4519 30.6606 43.4279 30.6657C43.3412 30.6842 43.2549 30.7039 43.1694 30.7253C43.13 30.7352 43.0911 30.7458 43.052 30.7563C42.9806 30.7754 42.9097 30.7955 42.8391 30.8166C42.7994 30.8286 42.7597 30.8404 42.7202 30.8531C42.644 30.8773 42.5686 30.9031 42.4935 30.9297C42.4631 30.9405 42.4325 30.9504 42.4024 30.9616C42.3011 30.9989 42.2011 31.0384 42.1019 31.08C42.0691 31.0938 42.0369 31.1086 42.0043 31.1228C41.9354 31.1529 41.8669 31.1835 41.799 31.2156C41.7598 31.2341 41.7208 31.2532 41.6819 31.2725C41.6199 31.303 41.5585 31.3347 41.4975 31.3669C41.4599 31.3868 41.4223 31.4065 41.385 31.427C41.3133 31.4665 41.2425 31.5075 41.1723 31.5494C41.1484 31.5636 41.1239 31.577 41.1001 31.5916C41.0105 31.6462 40.9223 31.7031 40.8353 31.7614C40.8007 31.7844 40.7668 31.8086 40.7327 31.8323C40.6768 31.8709 40.6214 31.9102 40.5667 31.9504C40.5299 31.9773 40.4934 32.0046 40.4572 32.0323C40.4043 32.0726 40.3521 32.1139 40.3003 32.1556C40.2666 32.1828 40.2326 32.2096 40.1994 32.2373C40.1289 32.2961 40.0596 32.3562 39.9913 32.4175C39.9604 32.4453 39.9299 32.4737 39.8994 32.502C39.842 32.5552 39.7852 32.609 39.7295 32.664C39.697 32.6962 39.6653 32.729 39.6334 32.7617C39.589 32.8071 39.5451 32.8532 39.5017 32.8998C39.4695 32.9346 39.4374 32.9694 39.4058 33.0048C39.362 33.0539 39.3191 33.1038 39.2766 33.154C39.2487 33.1869 39.2202 33.2195 39.1928 33.2529C39.1281 33.332 39.0648 33.4124 39.0033 33.4941C38.9788 33.5266 38.9556 33.56 38.9316 33.5931C38.8916 33.648 38.852 33.7031 38.8136 33.7591C38.7863 33.799 38.7597 33.8393 38.7331 33.8796C38.6992 33.9312 38.6659 33.9831 38.6332 34.0355C38.6074 34.0768 38.5817 34.1181 38.5567 34.1599C38.5223 34.2176 38.4892 34.2759 38.4563 34.3345C38.4357 34.3713 38.4143 34.4075 38.3943 34.4447C38.3458 34.5346 38.2994 34.6257 38.2545 34.7177C38.2342 34.7592 38.2153 34.8015 38.1959 34.8435C38.1691 34.9011 38.1426 34.959 38.1173 35.0174C38.0972 35.0635 38.0779 35.1099 38.0588 35.1565C38.0355 35.2135 38.013 35.271 37.9909 35.3286C37.9734 35.3748 37.9555 35.4207 37.9389 35.4672C37.935 35.4781 37.9306 35.4887 37.9268 35.4996H22.0737C22.0676 35.4824 22.0607 35.4656 22.0545 35.4484C22.0443 35.4203 22.0335 35.3925 22.0229 35.3646C21.9937 35.2864 21.9632 35.209 21.9313 35.1321C21.9181 35.1001 21.9048 35.0682 21.8911 35.0365C21.8575 34.9583 21.8223 34.881 21.7861 34.8041C21.7744 34.7793 21.7633 34.7542 21.7513 34.7294C21.7031 34.6302 21.653 34.532 21.6006 34.4352C21.5894 34.4144 21.5773 34.3943 21.5659 34.3736C21.5242 34.2981 21.4814 34.2233 21.4371 34.1496C21.417 34.116 21.3962 34.0828 21.3756 34.0495C21.3375 33.9881 21.2986 33.9274 21.2588 33.8673C21.2364 33.8334 21.2141 33.7997 21.1912 33.7662C21.1465 33.701 21.1006 33.6369 21.0539 33.5733C21.0357 33.5483 21.0181 33.5228 20.9994 33.4981C20.9362 33.4139 20.8711 33.3313 20.8044 33.25C20.78 33.2201 20.7546 33.1911 20.7297 33.1616C20.6843 33.1079 20.6385 33.0546 20.5916 33.0022C20.5615 32.9686 20.5311 32.9353 20.5004 32.9023C20.4556 32.854 20.4101 32.8064 20.3641 32.7593C20.3331 32.7277 20.3024 32.6959 20.271 32.6647C20.2145 32.609 20.1569 32.5544 20.0986 32.5003C20.0688 32.4726 20.0389 32.4447 20.0085 32.4175C19.9403 32.3563 19.8711 32.2962 19.8006 32.2375C19.7669 32.2094 19.7324 32.1822 19.6982 32.1546C19.6471 32.1135 19.5958 32.073 19.5436 32.0331C19.5067 32.005 19.4696 31.9771 19.4321 31.9496C19.3784 31.9102 19.324 31.8719 19.2693 31.8339C19.234 31.8095 19.1992 31.7847 19.1635 31.7608C19.077 31.7029 18.9895 31.6464 18.9004 31.5921C18.8749 31.5766 18.8486 31.5621 18.8228 31.5468C18.7543 31.5061 18.6854 31.4662 18.6155 31.4276C18.5777 31.4068 18.5394 31.3867 18.501 31.3664C18.4407 31.3346 18.3799 31.3033 18.3186 31.273C18.2793 31.2536 18.24 31.2344 18.2003 31.2156C18.1327 31.1836 18.0644 31.153 17.9956 31.1232C17.963 31.109 17.9308 31.0941 17.898 31.0803C17.7987 31.0387 17.6984 30.9991 17.597 30.9617C17.5677 30.9509 17.5379 30.9412 17.5084 30.9307C17.4322 30.9037 17.3557 30.8775 17.2784 30.8529C17.24 30.8407 17.2012 30.829 17.1625 30.8174C17.0905 30.7957 17.0181 30.7752 16.945 30.7557C16.9076 30.7456 16.8701 30.7354 16.8323 30.7259C16.7433 30.7035 16.6536 30.683 16.5634 30.6639C16.5427 30.6596 16.5224 30.6544 16.5017 30.6502C16.3911 30.6277 16.2794 30.608 16.1671 30.5904C16.1355 30.5855 16.1037 30.5816 16.072 30.5771C15.989 30.5652 15.9057 30.5545 15.8218 30.5453C15.7832 30.5411 15.7444 30.5373 15.7055 30.5337C15.6235 30.5261 15.5413 30.5199 15.4587 30.515C15.4233 30.5129 15.388 30.5103 15.3524 30.5086C15.2357 30.5033 15.1185 30.4997 15.0005 30.4997H15.0002H15C14.9994 30.4997 14.9987 30.4997 14.9981 30.4997C14.8811 30.4997 14.7648 30.5033 14.649 30.5085C14.612 30.5103 14.5752 30.5129 14.5383 30.5152C14.4575 30.5201 14.3773 30.5261 14.2972 30.5335C14.2567 30.5372 14.2161 30.5412 14.1757 30.5457C14.0944 30.5546 14.0135 30.565 13.933 30.5765C13.899 30.5813 13.8649 30.5855 13.8312 30.5908C13.72 30.6081 13.6095 30.6277 13.4999 30.65C13.4758 30.6549 13.4521 30.6609 13.4279 30.6659C13.3412 30.6844 13.2551 30.7041 13.1696 30.7256C13.1302 30.7354 13.0912 30.7461 13.052 30.7566C12.9806 30.7757 12.9098 30.7959 12.8393 30.817C12.7996 30.8289 12.7598 30.8409 12.7204 30.8534C12.6442 30.8777 12.5689 30.9034 12.4939 30.93C12.4635 30.9408 12.4327 30.9508 12.4026 30.9619C12.3014 30.9993 12.2012 31.0388 12.1022 31.0803C12.0693 31.0941 12.0371 31.109 12.0044 31.1233C11.9356 31.1533 11.867 31.184 11.7993 31.216C11.7599 31.2346 11.721 31.2537 11.6821 31.2729C11.6201 31.3035 11.5587 31.335 11.4978 31.3673C11.4602 31.3872 11.4224 31.4069 11.3853 31.4274C11.3137 31.4669 11.243 31.5078 11.1729 31.5495C11.1489 31.5638 11.1243 31.5773 11.1004 31.5919C11.0109 31.6465 10.9227 31.7034 10.8357 31.7616C10.801 31.7848 10.7671 31.8089 10.7328 31.8327C10.677 31.8714 10.6216 31.9105 10.567 31.9506C10.5302 31.9776 10.4937 32.0049 10.4575 32.0325C10.4046 32.0728 10.3524 32.1141 10.3006 32.1558C10.2669 32.183 10.2329 32.2098 10.1996 32.2375C10.1294 32.2961 10.0603 32.356 9.99229 32.417C9.96089 32.4453 9.93007 32.4741 9.89913 32.5028C9.84206 32.5559 9.78534 32.6093 9.72991 32.6642C9.69734 32.6964 9.66546 32.7293 9.63347 32.7621C9.58917 32.8075 9.54535 32.8533 9.50222 32.8998C9.46988 32.9346 9.43777 32.9697 9.40601 33.0052C9.3623 33.054 9.31964 33.1038 9.27722 33.1539C9.2491 33.187 9.22062 33.2196 9.19308 33.2533C9.1284 33.3324 9.06512 33.4126 9.00359 33.4943C8.9791 33.5269 8.9559 33.5603 8.93188 33.5933C8.89192 33.6483 8.85231 33.7034 8.81387 33.7594C8.78657 33.7992 8.75996 33.8395 8.73336 33.8798C8.6995 33.9314 8.66622 33.9833 8.63352 34.0357C8.60774 34.0771 8.58196 34.1183 8.557 34.1602C8.52255 34.2178 8.4895 34.2762 8.45657 34.3348C8.43595 34.3716 8.41462 34.4078 8.39458 34.4449C8.34606 34.5348 8.29966 34.626 8.25478 34.718C8.2345 34.7594 8.21564 34.8018 8.19618 34.8437C8.16935 34.9014 8.14287 34.9592 8.11755 35.0176C8.09751 35.0638 8.07818 35.1102 8.05908 35.1568C8.03576 35.2138 8.01326 35.2711 7.99134 35.3286C7.97365 35.3749 7.95584 35.4211 7.93908 35.4677C7.93521 35.4785 7.93087 35.489 7.92701 35.4998H5.51298L6.91288 28.0334H30.376C35.4159 28.0334 38.9442 24.2413 41.4557 18.0001H47.8409L48.9968 25.8636C49.1246 26.7337 49.7004 27.4726 50.5127 27.8094L55.0001 29.6698V35.4994H55Z" fill="black"/>
</svg>
