<svg width="46" height="50" viewBox="0 0 46 50" fill="none" xmlns="http://www.w3.org/2000/svg">
<path d="M15.5 25.0001L20.5 30.0001L30.5 20M43 25.0001C43 36.1528 29.35 44.2343 24.6035 46.7076C24.0903 46.9751 23.8335 47.1088 23.4775 47.1781C23.2 47.2321 22.8 47.2321 22.5225 47.1781C22.1665 47.1088 21.9097 46.9751 21.3965 46.7076C16.6499 44.2343 3 36.1528 3 25.0001V15.544C3 13.5453 3 12.5459 3.3269 11.6868C3.61568 10.9279 4.08495 10.2507 4.69415 9.71386C5.38375 9.10613 6.3195 8.75523 8.191 8.05341L21.5955 3.02673C22.1152 2.83183 22.375 2.73438 22.6425 2.69573C22.8795 2.66148 23.1205 2.66148 23.3575 2.69573C23.625 2.73438 23.8848 2.83183 24.4045 3.02673L37.809 8.05341C39.6805 8.75523 40.6162 9.10613 41.3057 9.71386C41.915 10.2507 42.3842 10.9279 42.673 11.6868C43 12.5459 43 13.5453 43 15.544V25.0001Z" stroke="black" stroke-width="5" stroke-linecap="round" stroke-linejoin="round"/>
</svg>
