<svg width="30" height="30" viewBox="0 0 30 30" fill="none" xmlns="http://www.w3.org/2000/svg">
<path d="M18.9271 0.666665C17.1037 0.666638 15.6339 0.666616 14.478 0.82203C13.2778 0.983385 12.2673 1.32858 11.4648 2.13113C10.7648 2.83104 10.4112 3.69114 10.2255 4.7018C10.0452 5.68388 10.0106 6.88573 10.0026 8.32777C9.99955 8.88004 10.4448 9.33024 10.997 9.33332C11.5493 9.33639 11.9995 8.89118 12.0026 8.3389C12.0107 6.8809 12.0486 5.84746 12.1926 5.06313C12.3315 4.30738 12.5544 3.86995 12.879 3.54535C13.248 3.17633 13.7661 2.93573 14.7444 2.8042C15.7516 2.66879 17.0864 2.66667 19.0003 2.66667H20.3336C22.2475 2.66667 23.5823 2.66879 24.5895 2.8042C25.5678 2.93573 26.0859 3.17633 26.4549 3.54535C26.824 3.91436 27.0646 4.43246 27.1961 5.41083C27.3315 6.41796 27.3336 7.75278 27.3336 9.66667V20.3333C27.3336 22.2472 27.3315 23.582 27.1961 24.5892C27.0646 25.5675 26.824 26.0856 26.4549 26.4547C26.0859 26.8237 25.5678 27.0643 24.5895 27.1958C23.5823 27.3312 22.2475 27.3333 20.3336 27.3333H19.0003C17.0864 27.3333 15.7516 27.3312 14.7444 27.1958C13.7661 27.0643 13.248 26.8237 12.879 26.4547C12.5544 26.13 12.3315 25.6926 12.1926 24.9369C12.0486 24.1525 12.0107 23.1191 12.0026 21.6611C11.9995 21.1088 11.5493 20.6636 10.997 20.6667C10.4448 20.6698 9.99955 21.12 10.0026 21.6722C10.0106 23.1143 10.0452 24.3161 10.2255 25.2982C10.4112 26.3089 10.7648 27.169 11.4648 27.8689C12.2673 28.6714 13.2778 29.0166 14.478 29.178C15.6339 29.3334 17.1037 29.3334 18.9271 29.3333H20.4068C22.2302 29.3334 23.7 29.3334 24.856 29.178C26.0561 29.0166 27.0666 28.6714 27.8692 27.8689C28.6717 27.0663 29.0169 26.0558 29.1783 24.8557C29.3337 23.6997 29.3336 22.2299 29.3336 20.4065V9.59351C29.3336 7.77005 29.3337 6.30029 29.1783 5.14433C29.0169 3.94419 28.6717 2.93369 27.8692 2.13113C27.0666 1.32858 26.0561 0.983385 24.856 0.82203C23.7 0.666616 22.2302 0.666638 20.4068 0.666665H18.9271Z" fill="#0E2920"/>
<path d="M1.66797 13.9987C1.11568 13.9987 0.667969 14.4464 0.667969 14.9987C0.667969 15.551 1.11568 15.9987 1.66797 15.9987L17.6314 15.9987L15.0172 18.2394C14.5979 18.5989 14.5493 19.2302 14.9087 19.6495C15.2681 20.0688 15.8994 20.1174 16.3188 19.758L20.9854 15.758C21.2071 15.568 21.3346 15.2906 21.3346 14.9987C21.3346 14.7068 21.2071 14.4294 20.9854 14.2394L16.3188 10.2394C15.8994 9.88002 15.2681 9.92858 14.9087 10.3479C14.5493 10.7672 14.5979 11.3985 15.0172 11.758L17.6314 13.9987L1.66797 13.9987Z" fill="#0E2920"/>
</svg>
